<svg width="102" height="102" viewBox="0 0 102 102" fill="none" xmlns="http://www.w3.org/2000/svg">
<path d="M7.52029 17.5465C7.96146 12.1165 12.1165 7.96148 17.5465 7.52031C24.4065 6.96294 35.3515 6.375 51 6.375C66.6485 6.375 77.5935 6.96292 84.4535 7.52029C89.8835 7.96146 94.0385 12.1165 94.4796 17.5465C95.037 24.4065 95.625 35.3515 95.625 51C95.625 66.6485 95.037 77.5935 94.4796 84.4535C94.0385 89.8835 89.8835 94.0385 84.4535 94.4796C77.5935 95.037 66.6485 95.625 51 95.625C35.3515 95.625 24.4065 95.037 17.5465 94.4796C12.1165 94.0385 7.96148 89.8835 7.52031 84.4535C6.96294 77.5935 6.375 66.6485 6.375 51C6.375 35.3515 6.96292 24.4065 7.52029 17.5465Z" stroke="black" stroke-width="3" stroke-linecap="round" stroke-linejoin="round"/>
<path d="M19.2652 38.1873C19.2095 40.5584 21.1246 42.5002 23.4961 42.5002H78.4996C80.8713 42.5002 82.7864 40.5584 82.7307 38.1873C82.5968 32.4927 82.3903 28.2175 82.2067 25.2658C82.0216 22.29 79.7079 19.9764 76.732 19.7913C71.8773 19.4893 63.4414 19.125 50.9979 19.125C38.5545 19.125 30.1187 19.4893 25.2637 19.7913C22.2878 19.9764 19.9743 22.29 19.7892 25.2658C19.6056 28.2175 19.399 32.4927 19.2652 38.1873Z" stroke="black" stroke-width="3" stroke-linecap="round" stroke-linejoin="round"/>
<path d="M23.375 59.5H31.875" stroke="black" stroke-width="3" stroke-linecap="round" stroke-linejoin="round"/>
<path d="M23.375 78.625H31.875" stroke="black" stroke-width="3" stroke-linecap="round" stroke-linejoin="round"/>
<path d="M46.75 59.5H55.25" stroke="black" stroke-width="3" stroke-linecap="round" stroke-linejoin="round"/>
<path d="M46.75 78.625H55.25" stroke="black" stroke-width="3" stroke-linecap="round" stroke-linejoin="round"/>
<path d="M70.125 59.5H78.625" stroke="black" stroke-width="3" stroke-linecap="round" stroke-linejoin="round"/>
<path d="M70.125 78.625H78.625" stroke="black" stroke-width="3" stroke-linecap="round" stroke-linejoin="round"/>
</svg>
