<svg width="102" height="102" viewBox="0 0 102 102" fill="none" xmlns="http://www.w3.org/2000/svg">
<path d="M17.334 2.18262C18.4463 1.68156 19.6408 1.17787 21.1846 1.7627L21.1895 1.76465C22.2919 2.17855 23.3706 3.05445 25.4121 5.07031L25.4131 5.07129C27.3663 6.99728 29.745 10.1815 31.9209 13.4971C34.0887 16.8003 35.9829 20.1221 36.9854 22.2666C38.3369 25.1689 39.0762 26.8114 39.165 28.5117L39.1748 28.8535C39.1743 30.9216 38.1583 32.5755 36.5615 34.752L36.5605 34.7529C36.2721 35.147 35.9852 35.5243 35.6963 35.9053C34.8549 37.0105 34.2186 37.8758 33.8574 38.6436C33.4282 39.5557 33.3706 40.3503 33.5596 41.2363L33.5605 41.2393C33.8733 42.6924 35.07 45.226 36.875 48.0811C38.715 50.9913 41.2856 54.391 44.4863 57.584C47.6878 60.7779 51.0429 63.2868 53.9102 65.0664C56.7293 66.8161 59.2084 67.9427 60.6543 68.251V68.25C61.5638 68.4443 62.3758 68.3876 63.3096 67.9463C64.0962 67.5745 64.9833 66.917 66.123 66.0469L66.124 66.0479C66.4675 65.7858 66.8 65.5298 67.1484 65.2734L67.1543 65.2686C69.6088 63.443 71.1586 62.4824 73.1504 62.4824H73.1641C74.9495 62.4825 76.5007 63.2322 79.7432 64.8672C81.7376 65.8731 85.057 67.7575 88.3867 69.9053C91.7379 72.0669 94.9891 74.4245 96.9209 76.373V76.374C98.9434 78.412 99.8221 79.4858 100.237 80.585C100.823 82.1338 100.318 83.3179 99.8154 84.4541C99.7339 84.637 99.6342 84.8575 99.5303 85.1006L99.5273 85.1074C98.6062 87.2909 97.4858 89.3847 96.1807 91.3633C93.8304 94.8784 91.5661 97.4258 87.8271 99.166L87.8184 99.1699C85.9216 100.067 83.8457 100.521 81.7471 100.499H81.7305C77.7724 100.499 72.0332 99.1103 63.2793 94.332L62.4229 93.8594C51.4945 87.7319 43.0108 82.0903 32.3184 71.5996L31.2764 70.5684C20.4738 59.7744 15.2538 52.8348 7.89648 39.4492H7.89551C-0.356386 24.4445 1.25466 16.973 2.58008 14.1396L2.58105 14.1377C4.31796 10.4112 6.87005 8.15566 10.4004 5.79883L10.3994 5.79785C12.382 4.50016 14.4805 3.38819 16.667 2.47461L16.6807 2.46875C16.9168 2.36732 17.1353 2.27088 17.3271 2.18555L17.334 2.18262Z" stroke="black" stroke-width="3"/>
</svg>
