<svg width="107" height="66" viewBox="0 0 107 66" fill="none" xmlns="http://www.w3.org/2000/svg">
<path d="M48.4383 28.0517H58.6246C61.3262 28.0517 63.9171 26.9785 65.8274 25.0682C67.7377 23.1579 68.8109 20.567 68.8109 17.8654C68.8109 15.1639 67.7377 12.5729 65.8274 10.6626C63.9171 8.75234 61.3262 7.67914 58.6246 7.67914H43.3451C40.2893 7.67914 37.7427 8.69777 36.2147 10.735L7.69312 38.238" stroke="black" stroke-width="4" stroke-linecap="round" stroke-linejoin="round"/>
<path d="M28.0659 58.6107L36.215 51.4803C37.7429 49.4431 40.2895 48.4244 43.3454 48.4244H63.7179C69.3204 48.4244 74.4136 46.3872 77.9788 42.3127L101.407 19.9028C103.373 18.0455 104.52 15.4835 104.596 12.7804C104.673 10.0773 103.672 7.45462 101.815 5.48922C99.9574 3.52383 97.3953 2.37675 94.6923 2.30034C91.9892 2.22393 89.3665 3.22444 87.4011 5.08177L66.0099 24.945" stroke="black" stroke-width="4" stroke-linecap="round" stroke-linejoin="round"/>
<path d="M2.6001 33.1448L33.159 63.7037" stroke="black" stroke-width="4" stroke-linecap="round" stroke-linejoin="round"/>
</svg>
