<svg width="102" height="102" viewBox="0 0 102 102" fill="none" xmlns="http://www.w3.org/2000/svg">
<path d="M61.9225 91.3474C72.8004 91.2135 80.5014 90.6164 85.527 90.0426C90.202 89.5071 93.7083 85.9987 94.2225 81.3195C94.9004 75.1782 95.625 64.8699 95.625 48.875C95.625 42.7635 95.5188 37.4829 95.3488 32.946C94.6029 30.8592 92.055 25.364 84.1585 17.6247C75.7839 9.41374 69.9848 7.10175 68.1807 6.53862C64.5799 6.42747 60.9776 6.37292 57.375 6.375C44.064 6.375 34.9223 7.055 29.223 7.70737C24.5459 8.24287 21.0418 11.7512 20.5275 16.4305C20.0494 20.7527 19.55 27.1405 19.295 36.125" stroke="black" stroke-width="3" stroke-linecap="round" stroke-linejoin="round"/>
<path d="M95.3785 33.915C90.9436 34.5737 82.9685 34.068 76.9165 33.507C74.6095 33.3006 72.4478 32.2927 70.8065 30.6585C69.1653 29.0242 68.1482 26.8668 67.932 24.5607C67.3603 18.6044 66.8546 10.8162 67.5473 6.52161" stroke="black" stroke-width="3" stroke-linecap="round" stroke-linejoin="round"/>
<path d="M6.375 70.125C6.375 76.888 9.0616 83.374 13.8438 88.1562C18.626 92.9384 25.112 95.625 31.875 95.625C38.638 95.625 45.124 92.9384 49.9062 88.1562C54.6884 83.374 57.375 76.888 57.375 70.125C57.375 63.362 54.6884 56.876 49.9062 52.0938C45.124 47.3116 38.638 44.625 31.875 44.625C25.112 44.625 18.626 47.3116 13.8438 52.0938C9.0616 56.876 6.375 63.362 6.375 70.125Z" stroke="black" stroke-width="3" stroke-linecap="round" stroke-linejoin="round"/>
<path d="M42.5 61.625L30.0008 78.625L21.25 68.7076" stroke="black" stroke-width="3" stroke-linecap="round" stroke-linejoin="round"/>
</svg>
