<svg width="107" height="106" viewBox="0 0 107 106" fill="none" xmlns="http://www.w3.org/2000/svg">
<path d="M2.6001 53C2.6001 63.0868 5.5912 72.9472 11.1951 81.3341C16.7991 89.721 24.7642 96.2578 34.0832 100.118C43.4023 103.978 53.6567 104.988 63.5497 103.02C73.4427 101.052 82.53 96.1949 89.6625 89.0624C96.795 81.9299 101.652 72.8426 103.62 62.9496C105.588 53.0566 104.578 42.8022 100.718 33.4831C96.8579 24.1641 90.3211 16.199 81.9342 10.595C73.5473 4.9911 63.6869 2 53.6001 2C39.3425 2.05364 25.6576 7.61693 15.4068 17.5267L2.6001 30.3333" stroke="black" stroke-width="4" stroke-linecap="round" stroke-linejoin="round"/>
<path d="M2.6001 2V30.3333H30.9334" stroke="black" stroke-width="4" stroke-linecap="round" stroke-linejoin="round"/>
<path d="M53.6001 24.6667V53L76.2668 64.3333" stroke="black" stroke-width="4" stroke-linecap="round" stroke-linejoin="round"/>
</svg>
