<svg width="107" height="98" viewBox="0 0 107 98" fill="none" xmlns="http://www.w3.org/2000/svg">
<path d="M48.5 74.1918L58.7 84.3918C59.7046 85.3964 60.8972 86.1933 62.2098 86.737C63.5224 87.2807 64.9292 87.5605 66.35 87.5605C67.7707 87.5605 69.1775 87.2807 70.4901 86.737C71.8027 86.1933 72.9954 85.3964 74 84.3918C75.0046 83.3872 75.8015 82.1945 76.3452 80.8819C76.8889 79.5693 77.1687 78.1625 77.1687 76.7418C77.1687 75.3211 76.8889 73.9142 76.3452 72.6016C75.8015 71.2891 75.0046 70.0964 74 69.0918" stroke="black" stroke-width="4" stroke-linecap="round" stroke-linejoin="round"/>
<path d="M63.7999 58.8919L76.5499 71.6419C78.5788 73.6708 81.3306 74.8107 84.1999 74.8107C87.0692 74.8107 89.821 73.6708 91.8499 71.6419C93.8788 69.613 95.0186 66.8612 95.0186 63.9919C95.0186 61.1226 93.8788 58.3708 91.8499 56.3419L72.0619 36.554C69.1931 33.6888 65.3044 32.0794 61.2499 32.0794C57.1954 32.0794 53.3067 33.6888 50.4379 36.554L45.9499 41.042C43.921 43.0709 41.1692 44.2107 38.2999 44.2107C35.4306 44.2107 32.6788 43.0709 30.6499 41.042C28.621 39.0131 27.4812 36.2613 27.4812 33.392C27.4812 30.5227 28.621 27.7709 30.6499 25.742L44.9809 11.411C49.6333 6.77073 55.7006 3.81481 62.2222 3.01116C68.7438 2.2075 75.3471 3.60203 80.9869 6.97399L83.3839 8.40199C85.5554 9.71262 88.1373 10.1672 90.6259 9.67699L99.4999 7.89199" stroke="black" stroke-width="4" stroke-linecap="round" stroke-linejoin="round"/>
<path d="M99.5001 2.79193L104.6 58.8919H94.4001" stroke="black" stroke-width="4" stroke-linecap="round" stroke-linejoin="round"/>
<path d="M7.70009 2.79193L2.6001 58.8919L35.7501 92.0418C37.779 94.0707 40.5307 95.2106 43.4001 95.2106C46.2694 95.2106 49.0211 94.0707 51.05 92.0418C53.0789 90.0129 54.2188 87.2611 54.2188 84.3918C54.2188 81.5225 53.0789 78.7708 51.05 76.7418" stroke="black" stroke-width="4" stroke-linecap="round" stroke-linejoin="round"/>
<path d="M7.69995 7.89191H48.4999" stroke="black" stroke-width="4" stroke-linecap="round" stroke-linejoin="round"/>
</svg>
