<svg width="105" height="104" viewBox="0 0 105 104" fill="none" xmlns="http://www.w3.org/2000/svg">
<path d="M33.3502 91.8728C43.4916 97.0751 55.1576 98.4842 66.246 95.8462C77.3345 93.2082 87.1161 86.6965 93.8282 77.4846C100.54 68.2727 103.742 56.9663 102.855 45.6029C101.969 34.2395 97.0526 23.5664 88.9931 15.5069C80.9336 7.44737 70.2605 2.53143 58.8971 1.64493C47.5337 0.758438 36.2274 3.95969 27.0154 10.6718C17.8035 17.384 11.2918 27.1656 8.6538 38.254C6.01577 49.3424 7.42487 61.0084 12.6272 71.1498L2 102.5L33.3502 91.8728Z" stroke="black" stroke-width="3" stroke-linecap="round" stroke-linejoin="round"/>
<path d="M33.8816 49.3641H33.9339H33.8816Z" fill="black"/>
<path d="M33.8816 49.3641H33.9339" stroke="black" stroke-width="12" stroke-linecap="round" stroke-linejoin="round"/>
<path d="M55.1357 49.3641H55.188H55.1357Z" fill="black"/>
<path d="M55.1357 49.3641H55.188" stroke="black" stroke-width="12" stroke-linecap="round" stroke-linejoin="round"/>
<path d="M76.3904 49.3641H76.4427H76.3904Z" fill="black"/>
<path d="M76.3904 49.3641H76.4427" stroke="black" stroke-width="12" stroke-linecap="round" stroke-linejoin="round"/>
</svg>
