<svg width="86" height="106" viewBox="0 0 86 106" fill="none" xmlns="http://www.w3.org/2000/svg">
<path d="M83.6 42.8C83.6 73.4 42.8 104 42.8 104C42.8 104 2 73.4 2 42.8C2 31.9792 6.29856 21.6015 13.95 13.95C21.6015 6.29856 31.9792 2 42.8 2C53.6208 2 63.9985 6.29856 71.65 13.95C79.3014 21.6015 83.6 31.9792 83.6 42.8Z" stroke="black" stroke-width="3" stroke-linecap="round" stroke-linejoin="round"/>
<path d="M27.5 42.8C27.5 46.8578 29.112 50.7494 31.9813 53.6187C34.8506 56.488 38.7422 58.1 42.8 58.1C46.8578 58.1 50.7494 56.488 53.6187 53.6187C56.488 50.7494 58.1 46.8578 58.1 42.8C58.1 38.7422 56.488 34.8506 53.6187 31.9813C50.7494 29.112 46.8578 27.5 42.8 27.5C38.7422 27.5 34.8506 29.112 31.9813 31.9813C29.112 34.8506 27.5 38.7422 27.5 42.8Z" stroke="black" stroke-width="3" stroke-linecap="round" stroke-linejoin="round"/>
</svg>
