<svg width="102" height="102" viewBox="0 0 102 102" fill="none" xmlns="http://www.w3.org/2000/svg">
<path d="M7.52038 84.4539C7.96238 89.8833 12.1167 94.0376 17.5461 94.4796C24.4056 95.0364 35.3515 95.625 51 95.625C66.6485 95.625 77.5944 95.0364 84.4539 94.4796C89.8833 94.0376 94.0376 89.8833 94.4796 84.4539C95.0364 77.5944 95.625 66.6485 95.625 51C95.625 35.3515 95.0364 24.4056 94.4796 17.5461C94.0376 12.1167 89.8833 7.96238 84.4539 7.52038C77.5944 6.96363 66.6485 6.375 51 6.375C35.3515 6.375 24.4056 6.96363 17.5461 7.52038C12.1167 7.96238 7.96238 12.1167 7.52038 17.5461C6.96363 24.4056 6.375 35.3515 6.375 51C6.375 66.6485 6.96363 77.5944 7.52038 84.4539Z" stroke="black" stroke-width="3" stroke-linejoin="round"/>
<path d="M7.4375 28.6875H94.5625" stroke="black" stroke-width="3" stroke-linecap="round"/>
<path d="M21.25 18.0625H25.5" stroke="black" stroke-width="3" stroke-linecap="round" stroke-linejoin="round"/>
<path d="M38.25 18.0625H42.5" stroke="black" stroke-width="3" stroke-linecap="round" stroke-linejoin="round"/>
</svg>
