<svg width="87" height="106" viewBox="0 0 87 106" fill="none" xmlns="http://www.w3.org/2000/svg">
<path d="M84.1864 58.0929C84.1864 83.5886 66.3394 96.3365 45.127 103.73C44.0162 104.107 42.8096 104.089 41.7105 103.679C20.4471 96.3365 2.6001 83.5886 2.6001 58.0929V22.3989C2.6001 21.0465 3.13733 19.7495 4.0936 18.7932C5.04988 17.837 6.34687 17.2997 7.69924 17.2997C17.8975 17.2997 30.6454 11.1808 39.5179 3.43005C40.5982 2.5071 41.9724 2 43.3933 2C44.8141 2 46.1883 2.5071 47.2686 3.43005C56.1921 11.2317 68.889 17.2997 79.0873 17.2997C80.4397 17.2997 81.7367 17.837 82.6929 18.7932C83.6492 19.7495 84.1864 21.0465 84.1864 22.3989V58.0929Z" stroke="black" stroke-width="4" stroke-linecap="round" stroke-linejoin="round"/>
<path d="M28.0959 52.9936L38.2942 63.1919L58.6908 42.7953" stroke="black" stroke-width="8" stroke-linecap="round" stroke-linejoin="round"/>
</svg>
