<svg width="102" height="102" viewBox="0 0 102 102" fill="none" xmlns="http://www.w3.org/2000/svg">
<path fill-rule="evenodd" clip-rule="evenodd" d="M15.0409 1.23303C22.4565 0.630528 34.2235 0.000213623 51 0.000213623C67.7765 0.000213623 79.5434 0.630528 86.9591 1.23303C94.4114 1.83853 100.162 7.58865 100.767 15.0411C101.37 22.4568 102 34.2237 102 51.0002C102 67.7767 101.37 79.5437 100.767 86.9593C100.162 94.4119 94.4114 100.162 86.9591 100.767C79.5434 101.37 67.7765 102 51 102C34.2235 102 22.4565 101.37 15.0409 100.767C7.58846 100.162 1.83831 94.4119 1.23282 86.9593C0.630315 79.5437 0 67.7767 0 51.0002C0 34.2237 0.630315 22.4568 1.23282 15.0412C1.83831 7.5887 7.58844 1.83855 15.0409 1.23303ZM78.5203 16.5798C73.3167 16.2561 64.2951 15.8669 51 15.8669C37.7049 15.8669 28.6833 16.2561 23.4799 16.5798C19.7352 16.8127 16.8125 19.7354 16.5796 23.4802C16.3828 26.6435 16.1618 31.2183 16.0188 37.3068C15.9443 40.4783 18.5052 43.0671 21.6648 43.0671H80.3352C83.4949 43.0671 86.0558 40.4783 85.9812 37.3068C85.8382 31.2183 85.6172 26.6435 85.4205 23.4802C85.1875 19.7354 82.265 16.8127 78.5203 16.5798ZM21.5333 57.8002C19.0297 57.8002 17.0001 59.8298 17.0001 62.3335C17.0001 64.8373 19.0297 66.8669 21.5333 66.8669H30.6C33.1038 66.8669 35.1333 64.8373 35.1333 62.3335C35.1333 59.8298 33.1038 57.8002 30.6 57.8002H21.5333ZM17.0001 82.7335C17.0001 80.2298 19.0297 78.2002 21.5333 78.2002H30.6C33.1038 78.2002 35.1333 80.2298 35.1333 82.7335C35.1333 85.2373 33.1038 87.2669 30.6 87.2669H21.5333C19.0297 87.2669 17.0001 85.2373 17.0001 82.7335ZM46.4667 57.8002C43.9631 57.8002 41.9333 59.8298 41.9333 62.3335C41.9333 64.8373 43.9631 66.8669 46.4667 66.8669H55.5333C58.0371 66.8669 60.0667 64.8373 60.0667 62.3335C60.0667 59.8298 58.0371 57.8002 55.5333 57.8002H46.4667ZM41.9333 82.7335C41.9333 80.2298 43.9631 78.2002 46.4667 78.2002H55.5333C58.0371 78.2002 60.0667 80.2298 60.0667 82.7335C60.0667 85.2373 58.0371 87.2669 55.5333 87.2669H46.4667C43.9631 87.2669 41.9333 85.2373 41.9333 82.7335ZM71.4 57.8002C68.8965 57.8002 66.8667 59.8298 66.8667 62.3335C66.8667 64.8373 68.8965 66.8669 71.4 66.8669H80.4667C82.9704 66.8669 85 64.8373 85 62.3335C85 59.8298 82.9704 57.8002 80.4667 57.8002H71.4ZM66.8667 82.7335C66.8667 80.2298 68.8965 78.2002 71.4 78.2002H80.4667C82.9704 78.2002 85 80.2298 85 82.7335C85 85.2373 82.9704 87.2669 80.4667 87.2669H71.4C68.8965 87.2669 66.8667 85.2373 66.8667 82.7335Z" fill="black"/>
</svg>
