<svg width="102" height="102" viewBox="0 0 102 102" fill="none" xmlns="http://www.w3.org/2000/svg">
<path d="M81.7313 101.999C77.2863 101.999 71.042 100.392 61.6915 95.169C50.3212 88.7937 41.5266 82.9084 30.2175 71.6311C19.3141 60.7366 14.0082 53.6831 6.58207 40.1722C-1.80722 24.9178 -0.377121 16.9215 1.22149 13.5041C3.12525 9.41957 5.93534 6.97647 9.56762 4.55159C11.6306 3.20026 13.8139 2.0417 16.0896 1.09087C16.3173 0.993079 16.529 0.899622 16.7181 0.81549C17.8454 0.307658 19.5533 -0.45951 21.7167 0.360132C23.1605 0.902008 24.4494 2.01069 26.467 4.00299C30.6048 8.08299 36.2593 17.1695 38.3452 21.6323C39.7458 24.6398 40.6725 26.6254 40.6749 28.852C40.6749 31.4591 39.3632 33.4694 37.7713 35.6393C37.4731 36.0467 37.1769 36.4359 36.8902 36.8141C35.1569 39.0909 34.7767 39.749 35.0272 40.9236C35.5351 43.2847 39.322 50.3133 45.546 56.5222C51.7695 62.7311 58.5969 66.2783 60.9673 66.7837C62.1925 67.0457 62.8642 66.6495 65.2145 64.8552C65.5515 64.598 65.8976 64.3317 66.2596 64.0655C68.6873 62.2599 70.6048 60.9825 73.1507 60.9825H73.1644C75.3802 60.9825 77.277 61.9433 80.4196 63.5279C84.5186 65.5953 93.8804 71.1758 97.9863 75.3173C99.9835 77.3298 101.097 78.6141 101.641 80.0552C102.461 82.2251 101.689 83.9258 101.186 85.0644C101.102 85.2532 101.008 85.4605 100.91 85.6904C99.9521 87.9617 98.7866 90.1399 97.4285 92.1977C95.0079 95.818 92.5552 98.6206 88.4606 100.526C86.3581 101.521 84.0571 102.024 81.7313 101.999Z" fill="black"/>
</svg>
