<svg width="103" height="84" viewBox="0 0 103 84" fill="none" xmlns="http://www.w3.org/2000/svg">
<path fill-rule="evenodd" clip-rule="evenodd" d="M57.6529 0.273071C53.6485 0.273071 50.0345 2.62585 48.503 6.23957C46.9672 9.84906 47.8176 14.0045 50.6506 16.7678C53.4836 19.531 57.744 20.3604 61.4448 18.8624C65.1498 17.3687 67.562 13.8438 67.562 9.938C67.562 4.59775 63.1281 0.273071 57.6529 0.273071ZM101.815 38.9787C102.344 38.6571 102.713 38.1282 102.821 37.5273C102.934 36.9307 102.782 36.3087 102.405 35.8263C101.424 34.4426 99.9448 33.4777 98.2614 33.1265C96.1616 32.7034 93.3069 33.0503 89.3762 34.9588L66.4301 46.1382C66.0744 49.6462 63.0547 52.3205 59.4451 52.3248H45.171C44.7068 52.1851 44.3901 51.762 44.3901 51.288C44.3901 50.8141 44.7068 50.3952 45.171 50.2555H59.4451C62.0569 50.1328 64.109 48.0339 64.109 45.4824C64.109 42.9349 62.0568 40.8318 59.4451 40.7092H40.5074C40.3989 40.7346 40.2905 40.7346 40.1863 40.7092C36.3207 39.4652 32.0213 38.5426 27.9692 39.3551C22.8367 40.3411 19.2965 43.7728 16.7494 48.0214L10.6408 58.2279L32.6328 70.6098L34.0645 68.1851C36.3379 64.2329 40.646 61.8082 45.2921 61.8674H52.9452C55.6264 61.8801 58.3032 61.5543 60.8977 60.8942C63.4834 60.2044 65.9694 59.1847 68.2817 57.8601L101.815 38.9787ZM32.5122 72.9288C33.2931 73.3646 33.8614 74.0924 34.0828 74.943C34.3084 75.7936 34.1695 76.6949 33.701 77.4439L30.9547 82.0605C30.5121 82.8349 29.7616 83.4019 28.8809 83.622C28.0001 83.8462 27.0631 83.7108 26.2908 83.2411L2.54618 69.8398C1.76959 69.4124 1.20563 68.6973 0.971278 67.8595C0.741339 67.0216 0.862816 66.1287 1.31401 65.3798L4.07765 60.6996C4.52018 59.9464 5.25339 59.3964 6.11237 59.172C6.97139 58.9477 7.88685 59.0662 8.65476 59.5063L32.5122 72.9288ZM57.654 22.3189C62.3743 22.3993 66.9298 23.9862 70.6353 26.8341C74.3404 29.6819 76.9869 33.6341 78.1713 38.0904L66.2751 43.8962C65.5116 40.8241 62.6958 38.6533 59.4551 38.6447H40.7306C39.6199 38.2893 38.4529 37.9635 37.2858 37.6926V37.6884C38.5439 33.3342 41.1991 29.4876 44.8694 26.7202C48.5355 23.9527 53.0214 22.4082 57.6553 22.3194L57.654 22.3189Z" fill="black"/>
</svg>
