<svg width="102" height="102" viewBox="0 0 102 102" fill="none" xmlns="http://www.w3.org/2000/svg">
<path fill-rule="evenodd" clip-rule="evenodd" d="M101.848 36.6739C101.945 40.4626 102 44.6547 102 49.2809C102 66.6338 101.214 77.8823 100.468 84.6531C99.7353 91.3005 94.6965 96.3441 88.0596 97.1026C81.7703 97.8212 71.7782 98.562 57.3037 98.562C55.4972 98.562 53.7604 98.5506 52.0922 98.5288C58.1527 92.3301 61.8882 83.8485 61.8882 74.4945C61.8882 55.5057 46.4948 40.1123 27.5059 40.1123C22.18 40.1123 17.1372 41.3233 12.6373 43.4848C12.7888 29.378 13.4797 19.8938 14.1394 13.9087C14.8721 7.26123 19.9108 2.21776 26.5477 1.45926C32.837 0.740493 42.8292 -0.000213623 57.3037 -0.000213623C60.1503 -0.000213623 62.8234 0.0284383 65.3292 0.0799198C65.3241 1.67773 65.3248 3.70071 65.3429 5.90681C65.3856 11.0602 65.524 17.3632 65.9254 21.5466C66.6616 29.2219 72.6015 35.3117 80.2415 36.0445C84.4217 36.4454 90.7755 36.5946 95.981 36.6475C98.1991 36.67 100.236 36.6753 101.848 36.6739ZM72.7704 20.8899C72.4014 17.0426 72.262 11.0172 72.2192 5.84998C72.2052 4.14334 72.2017 2.5467 72.2033 1.17614C75.5467 2.63976 81.2564 5.92042 88.5982 13.1182C96.3902 20.7575 99.6902 26.6026 101.05 29.7977C99.6042 29.7968 97.8902 29.7901 96.0512 29.7713C90.8296 29.7184 84.7488 29.5687 80.8979 29.1994C76.6281 28.7898 73.2009 25.3789 72.7704 20.8899ZM55.0117 74.4945C55.0117 89.6855 42.6969 102 27.5059 102C12.3148 102 0 89.6855 0 74.4945C0 59.3035 12.3148 46.9888 27.5059 46.9888C42.6969 46.9888 55.0117 59.3035 55.0117 74.4945ZM41.6824 61.6326C43.7222 63.1323 44.1597 66.0019 42.66 68.0416L29.1766 86.3788C28.3553 87.4958 27.0724 88.1811 25.6873 88.2428C24.3019 88.3044 22.9633 87.7358 22.0459 86.696L12.6076 75.9995C10.9325 74.1009 11.1135 71.2041 13.012 69.529C14.9105 67.8539 17.8075 68.0348 19.4826 69.9334L25.1587 76.366L35.2733 62.6102C36.773 60.5704 39.6426 60.1328 41.6824 61.6326Z" fill="black"/>
</svg>
