<svg width="103" height="84" viewBox="0 0 103 84" fill="none" xmlns="http://www.w3.org/2000/svg">
<path d="M87.7734 43.7479C86.5385 33.8533 78.6706 25.99 68.7815 24.756C68.7416 26.2499 67.5316 27.4351 66.0427 27.4351C64.5487 27.4351 63.3387 26.2499 63.2889 24.756C53.3942 25.9909 45.5564 33.8588 44.2969 43.7479C45.7908 43.7878 46.976 44.9978 46.976 46.4867C46.976 47.9807 45.7908 49.2006 44.2969 49.2405C45.5468 59.1352 53.3997 66.973 63.2889 68.2325C63.3387 66.7386 64.5388 65.5534 66.0427 65.5534C67.5466 65.5534 68.7467 66.7386 68.7815 68.2325C78.6761 66.9826 86.5394 59.1297 87.7734 49.2405C86.2944 49.2007 85.0943 47.9906 85.0943 46.4867C85.0943 44.9828 86.2944 43.7827 87.7734 43.7479ZM77.9833 48.5533H68.268C67.7202 49.1658 66.9185 49.5492 66.0371 49.5492C64.344 49.5492 62.9796 48.1848 62.9796 46.4918C62.9796 45.6103 63.363 44.8086 63.9755 44.2609V34.5455C63.9755 33.4001 64.8918 32.4789 66.0421 32.4789C67.1874 32.4789 68.1087 33.3952 68.1087 34.5455V44.2609L68.273 44.4252H77.9884C79.1337 44.4252 80.055 45.3415 80.055 46.4918C80.055 47.6371 79.1387 48.5584 77.9884 48.5584L77.9833 48.5533Z" fill="black"/>
<path d="M68.8056 9.80144V6.23098H72.6799C74.2086 6.23098 75.4337 5.00597 75.4337 3.47715C75.4337 1.94833 74.2087 0.723328 72.6799 0.723328H59.4245C57.8958 0.723328 56.6707 1.95829 56.6707 3.47715C56.6707 4.99595 57.8957 6.23098 59.4245 6.23098H63.2987V9.80144C58.7225 10.145 54.3602 11.3202 50.4118 13.1927H19.2939C17.7751 13.1927 16.5401 14.4177 16.5401 15.9465C16.5401 17.4753 17.775 18.7003 19.2939 18.7003H41.9611C38.7741 21.4541 36.0701 24.7556 33.9787 28.4406H27.1864C25.6676 28.4406 24.4326 29.6755 24.4326 31.1944C24.4326 32.7132 25.6676 33.9482 27.1864 33.9482H31.444C30.0298 37.8622 29.238 42.08 29.238 46.4771C29.238 50.8741 30.0297 55.0969 31.444 59.006H16.2611C14.7324 59.006 13.5073 60.2409 13.5073 61.7598C13.5073 63.2786 14.7323 64.5136 16.2611 64.5136H33.9783C36.0698 68.2085 38.7737 71.5101 41.9607 74.2638H32.4744C30.9556 74.2638 29.7206 75.4988 29.7206 77.0176C29.7206 78.5364 30.9556 79.7715 32.4744 79.7715H50.4109C55.1665 82.0173 60.4549 83.2772 66.0527 83.2772C86.3348 83.2772 102.857 66.7698 102.857 46.4622C102.857 26.1546 87.8135 11.1859 68.8216 9.77212L68.8056 9.80144ZM93.4845 46.5412C93.4596 61.6349 81.1946 73.8997 66.1018 73.9341H65.9872C50.8936 73.8943 38.6287 61.6343 38.6045 46.5412C38.6045 46.5263 38.5896 46.5163 38.5896 46.4914C38.5896 46.4765 38.6045 46.4665 38.6045 46.4416C38.6294 31.3633 50.8944 19.0831 65.9872 19.0589H66.1018C81.1954 19.0838 93.4603 31.3587 93.4845 46.4416V46.5562V46.5412Z" fill="black"/>
<path d="M19.0885 33.973C20.6073 33.973 21.8423 32.738 21.8423 31.2192C21.8423 29.7003 20.6073 28.4653 19.0885 28.4653H11.3749C9.85612 28.4653 8.62109 29.7003 8.62109 31.2192C8.62109 32.738 9.85606 33.973 11.3749 33.973H19.0885Z" fill="black"/>
<path d="M0.857666 46.503C0.857666 48.0218 2.09263 49.2569 3.61149 49.2569H22.3396C23.8584 49.2569 25.0934 48.0219 25.0934 46.503C25.0934 44.9842 23.8584 43.7492 22.3396 43.7492H3.61149C2.09269 43.7492 0.857666 44.9842 0.857666 46.503Z" fill="black"/>
<path d="M25.1437 74.2935H13.287C11.7682 74.2935 10.5332 75.5285 10.5332 77.0473C10.5332 78.5661 11.7682 79.8012 13.287 79.8012H25.1437C26.6625 79.8012 27.8975 78.5662 27.8975 77.0473C27.8975 75.5285 26.6626 74.2935 25.1437 74.2935Z" fill="black"/>
</svg>
