<svg width="103" height="62" viewBox="0 0 103 62" fill="none" xmlns="http://www.w3.org/2000/svg">
<path d="M52.3995 3.86824L36.972 16.3236C34.4061 18.3889 33.912 22.1065 35.8564 24.7596C37.9124 27.5875 41.9127 28.1435 44.6699 25.9988L60.4958 13.734C61.6114 12.8761 63.2052 13.0668 64.0817 14.1789C64.9583 15.291 64.7511 16.8797 63.6355 17.7534L60.3045 20.3271L88.5458 46.2546H95.2077C99.4311 46.2546 102.858 42.8389 102.858 38.6289V18.2936C102.858 14.0835 99.4311 10.6679 95.2077 10.6679H82.3461L81.7245 10.2707L70.1539 2.88326C67.7155 1.32634 64.8627 0.500214 61.962 0.500214C58.4877 0.500214 55.1089 1.69173 52.3995 3.86824ZM56.0333 23.6316L47.7936 30.0182C42.7733 33.9263 35.4899 32.9096 31.7286 27.7622C28.1905 22.9167 29.083 16.1489 33.7527 12.3836L47.0127 1.69173C45.1639 0.913274 43.1717 0.5161 41.1477 0.5161C38.1514 0.500214 35.2349 1.38988 32.7327 3.04212L21.2577 10.6679H8.50767C4.28423 10.6679 0.857666 14.0835 0.857666 18.2936V38.6289C0.857666 42.8389 4.28423 46.2546 8.50767 46.2546H25.752L40.3189 59.5043C43.4427 62.3481 48.2717 62.1257 51.1245 59.0118C52.0011 58.0427 52.5908 56.9147 52.8936 55.7391L55.603 58.2175C58.7108 61.0612 63.5558 60.8547 66.4086 57.7568C67.1258 56.9783 67.6517 56.0727 67.9864 55.1354C71.0783 57.2007 75.2858 56.7718 77.8836 53.9439C80.7364 50.8459 80.5292 46.0163 77.4214 43.1725L56.0333 23.6316Z" fill="black"/>
</svg>
