<svg width="102" height="102" viewBox="0 0 102 102" fill="none" xmlns="http://www.w3.org/2000/svg">
<path d="M83.3308 11.3477C74.1435 3.99674 62.7262 -0.00541818 50.9595 0.000219571C37.0896 0.000219571 24.1347 5.34394 14.4492 15.0476C5.08945 24.4368 -0.0402502 36.8341 0.000731954 49.946C0.00116563 59.5594 2.82329 68.961 8.11758 76.9851L8.16073 77.0464C8.22448 77.1401 8.29062 77.2333 8.35653 77.3244C8.42267 77.4155 8.50463 77.5339 8.52285 77.5636L8.57294 77.6547C8.8301 78.11 9.02829 78.6653 8.85287 79.2254L4.65903 94.4025C4.4912 94.9669 4.39948 95.5513 4.38582 96.1398C4.38278 97.6882 4.99405 99.1746 6.08539 100.273C7.17672 101.372 8.65902 101.993 10.2077 102C11.0258 101.973 11.8322 101.796 12.5868 101.479L27.9527 95.9325L28.1463 95.8574C28.5642 95.6818 29.0135 95.5927 29.4667 95.5957C29.8849 95.5966 30.2993 95.6736 30.6896 95.8232C31.0585 95.9667 34.4075 97.2487 37.9411 98.2366C40.8779 99.0562 46.9888 100.286 51.777 100.286C65.3581 100.286 78.0398 95.0263 87.4837 85.4729C96.8458 75.9926 102 63.3905 102 49.9735C102.002 46.5293 101.637 43.0948 100.912 39.728C98.558 28.658 92.315 18.5764 83.3308 11.3477ZM29.1436 58.2857C27.7027 58.2857 26.2941 57.8585 25.0961 57.0582C23.8976 56.2574 22.964 55.1197 22.4123 53.7883C21.8611 52.4571 21.7167 50.9922 21.9979 49.5788C22.2792 48.1655 22.9728 46.8675 23.992 45.8484C25.0107 44.8295 26.3091 44.1358 27.722 43.8546C29.1356 43.5733 30.6005 43.7175 31.9319 44.2692C33.2628 44.8206 34.401 45.7543 35.2013 46.9525C36.0019 48.1505 36.4293 49.5593 36.4293 51.0002C36.4293 52.9324 35.6619 54.7857 34.2956 56.1518C32.9289 57.5183 31.076 58.2857 29.1436 58.2857ZM51.0007 58.2857C49.5598 58.2857 48.1511 57.8585 46.9528 57.0582C45.7546 56.2574 44.8211 55.1197 44.2695 53.7883C43.7183 52.4571 43.5738 50.9922 43.8551 49.5788C44.1363 48.1655 44.8298 46.8675 45.8489 45.8484C46.868 44.8293 48.166 44.1358 49.5791 43.8546C50.9927 43.5733 52.4576 43.7175 53.7886 44.2692C55.12 44.8206 56.2581 45.7543 57.0585 46.9525C57.859 48.1505 58.2864 49.5593 58.2864 51.0002C58.2864 52.9324 57.5188 54.7857 56.1528 56.1518C54.786 57.5183 52.9329 58.2857 51.0007 58.2857ZM72.8579 58.2857C71.4168 58.2857 70.0082 57.8585 68.8102 57.0582C67.6117 56.2574 66.6782 55.1197 66.1268 53.7883C65.5752 52.4571 65.431 50.9922 65.7122 49.5788C65.9935 48.1655 66.6869 46.8675 67.706 45.8484C68.7252 44.8293 70.0231 44.1358 71.4363 43.8546C72.8498 43.5733 74.3148 43.7175 75.6459 44.2692C76.9771 44.8206 78.1151 45.7543 78.9156 46.9525C79.7162 48.1505 80.1433 49.5593 80.1433 51.0002C80.1433 52.9324 79.376 54.7857 78.0097 56.1518C76.6434 57.5183 74.7901 58.2857 72.8579 58.2857Z" fill="black"/>
</svg>
