<svg width="73" height="102" viewBox="0 0 73 102" fill="none" xmlns="http://www.w3.org/2000/svg">
<path d="M36.4292 43.7147C40.453 43.7147 43.7147 40.453 43.7147 36.4292C43.7147 32.4055 40.453 29.1433 36.4292 29.1433C32.4055 29.1433 29.1433 32.4055 29.1433 36.4292C29.1433 40.453 32.4055 43.7147 36.4292 43.7147Z" fill="black"/>
<path d="M36.4291 0.000427246C16.3431 0.000427246 0.000488281 15.6311 0.000488281 34.8368C0.000488281 43.9827 4.16924 56.146 12.3905 70.9889C18.9932 82.906 26.6321 93.6824 30.605 99.0445C31.2766 99.9606 32.1543 100.706 33.1671 101.219C34.1803 101.733 35.3 102 36.4358 102C37.5718 102 38.6915 101.733 39.7047 101.219C40.7177 100.706 41.5955 99.9606 42.2668 99.0445C46.2328 93.6824 53.8784 82.906 60.481 70.9889C68.6891 56.1505 72.8576 43.9873 72.8576 34.8368C72.8576 15.6311 56.5148 0.000427246 36.4291 0.000427246ZM36.4291 51.0024C33.5472 51.0024 30.7297 50.1478 28.3338 48.5465C25.9374 46.9456 24.0698 44.6697 22.9668 42.0069C21.864 39.3442 21.5754 36.4143 22.1376 33.5876C22.6999 30.7609 24.0878 28.1643 26.1253 26.1264C28.1635 24.0886 30.7596 22.7008 33.5864 22.1386C36.413 21.5761 39.3426 21.8647 42.0055 22.9678C44.6679 24.0706 46.9438 25.9384 48.5448 28.3349C50.1459 30.731 51.0004 33.5483 51.0004 36.4305C50.9963 40.2937 49.4598 43.9977 46.728 46.7296C43.9964 49.4615 40.2925 50.998 36.4291 51.0024Z" fill="black"/>
</svg>
