<svg width="102" height="80" viewBox="0 0 102 80" fill="none" xmlns="http://www.w3.org/2000/svg">
<path d="M89.2503 0.000213623H12.7505C9.37 0.00389328 6.12916 1.34588 3.73897 3.73203C1.34856 6.11775 0.00417451 9.35324 0.000488281 12.7273V67.2727C0.00417451 70.6472 1.34856 73.8822 3.73897 76.2684C6.12916 78.6545 9.37 79.9965 12.7505 80.0002H89.2503C92.6308 79.9965 95.8716 78.6545 98.262 76.2684C100.652 73.8822 101.997 70.6472 102 67.2727V12.7273C101.997 9.35324 100.652 6.11775 98.262 3.73203C95.8716 1.34588 92.6308 0.00389328 89.2503 0.000213623ZM86.022 21.0526L53.2363 46.5069C52.5968 47.0032 51.8104 47.2725 51.0005 47.2725C50.1906 47.2725 49.4039 47.0032 48.7645 46.5069L15.979 21.0526C15.5937 20.7619 15.2703 20.3983 15.0271 19.982C14.784 19.5658 14.6263 19.1052 14.563 18.6277C14.4997 18.15 14.532 17.6645 14.6582 17.1991C14.7846 16.7342 15.0021 16.2991 15.2983 15.9186C15.5947 15.5381 15.9638 15.2206 16.3842 14.9835C16.8045 14.7467 17.2678 14.5957 17.7475 14.5392C18.2265 14.4831 18.7124 14.5221 19.1764 14.6543C19.6407 14.7872 20.0737 15.0104 20.4506 15.3117L51.0005 39.0299L81.5504 15.3117C82.3143 14.7357 83.2745 14.4833 84.2236 14.6084C85.1724 14.734 86.0342 15.2271 86.6213 15.9812C87.2092 16.7357 87.4757 17.6905 87.3636 18.6396C87.251 19.5885 86.7694 20.4554 86.022 21.0526Z" fill="black"/>
</svg>
