<svg width="102" height="102" viewBox="0 0 102 102" fill="none" xmlns="http://www.w3.org/2000/svg">
<path d="M15.042 100.767C22.4562 101.37 34.2247 102 51.0002 102C67.7758 102 79.5442 101.37 86.9585 100.767C94.4112 100.162 100.162 94.4112 100.767 86.9584C101.37 79.5442 102 67.7757 102 51.0002C102 42.5909 101.841 35.4419 101.608 29.467H0.392598C0.121863 36.6415 -0.00887185 43.8206 0.000466971 51.0002C0.000466971 67.7757 0.630597 79.5442 1.23353 86.9584C1.83872 94.4112 7.58923 100.162 15.042 100.767Z" fill="black"/>
<path fill-rule="evenodd" clip-rule="evenodd" d="M0.711548 22.667C0.877014 19.743 1.05381 17.2066 1.23061 15.042C1.83581 7.58922 7.58631 1.83872 15.0391 1.23352C22.4533 0.630588 34.2218 0.000457764 50.9973 0.000457764C67.7728 0.000457764 79.5413 0.630588 86.9556 1.23352C94.4083 1.83872 100.159 7.58922 100.764 15.042C100.941 17.2066 101.118 19.743 101.283 22.667H0.711548ZM13.5975 12.4671C13.5975 11.5653 13.9557 10.7005 14.5933 10.0629C15.2309 9.42529 16.0957 9.06708 16.9975 9.06708H21.5308C22.4325 9.06708 23.2973 9.42529 23.9349 10.0629C24.5726 10.7005 24.9308 11.5653 24.9308 12.4671C24.9308 13.3688 24.5726 14.2336 23.9349 14.8712C23.2973 15.5088 22.4325 15.8671 21.5308 15.8671H16.9975C16.0957 15.8671 15.2309 15.5088 14.5933 14.8712C13.9557 14.2336 13.5975 13.3688 13.5975 12.4671ZM35.1307 9.06708C34.229 9.06708 33.3642 9.42529 32.7266 10.0629C32.0889 10.7005 31.7307 11.5653 31.7307 12.4671C31.7307 13.3688 32.0889 14.2336 32.7266 14.8712C33.3642 15.5088 34.229 15.8671 35.1307 15.8671H39.664C40.5658 15.8671 41.4306 15.5088 42.0682 14.8712C42.7058 14.2336 43.064 13.3688 43.064 12.4671C43.064 11.5653 42.7058 10.7005 42.0682 10.0629C41.4306 9.42529 40.5658 9.06708 39.664 9.06708H35.1307Z" fill="black"/>
</svg>
