<svg width="82" height="102" viewBox="0 0 82 102" fill="none" xmlns="http://www.w3.org/2000/svg">
<path d="M79.5588 16.5347H79.344C65.6009 16.5347 52.2872 10.7368 42.9461 0.644211C42.0872 -0.214737 40.4766 -0.214737 39.7251 0.644211C30.384 10.7368 17.0703 16.5347 3.32714 16.5347H3.1124C1.93135 16.5347 0.857666 17.5011 0.857666 18.7895V43.1621C0.857666 63.24 10.8429 81.9222 27.4851 93.0885L40.0472 101.571C40.3693 101.785 40.7987 102 41.3356 102C41.8724 102 42.1945 101.893 42.624 101.571L55.1861 93.0885C71.8282 81.9222 81.8135 63.24 81.8135 43.1621V18.6821C81.7061 17.5011 80.7398 16.5347 79.5588 16.5347ZM41.3356 73.2253C28.5587 73.2253 18.144 62.8106 18.144 50.0337C18.144 37.2569 28.5587 26.8421 41.3356 26.8421C54.1124 26.8421 64.5272 37.2569 64.5272 50.0337C64.5272 62.8106 54.1124 73.2253 41.3356 73.2253Z" fill="black"/>
<path d="M48.207 39.6633L37.8999 50.9679L34.2426 46.978C32.691 45.3156 30.0311 45.2048 28.3686 46.7564C26.7062 48.308 26.5954 50.9679 28.147 52.6303L34.9075 59.945C35.6834 60.8317 36.7916 61.275 38.0108 61.275C39.2299 61.275 40.3382 60.8317 41.114 59.945L54.5243 45.3156C56.0759 43.6532 55.9651 40.9933 54.3026 39.4417C52.4185 37.89 49.8695 38.0009 48.207 39.6633Z" fill="black"/>
</svg>
